<svg version="1.1" id="Layer_1" xmlns="http://www.w3.org/2000/svg" xmlns:xlink="http://www.w3.org/1999/xlink" x="0px" y="0px"
	 width="100%" viewBox="0 0 1401 347" enable-background="new 0 0 1401 347" xml:space="preserve">
<path fill="#FFFFFF" opacity="1.000000" stroke="none" 
	d="
M913.000000,348.000000 
	C608.666687,348.000000 304.833374,348.000000 1.000041,348.000000 
	C1.000027,232.333359 1.000027,116.666718 1.000014,1.000056 
	C467.999969,1.000038 934.999939,1.000038 1402.000000,1.000019 
	C1402.000000,116.666603 1402.000000,232.333206 1402.000000,347.999908 
	C1239.166626,348.000000 1076.333374,348.000000 913.000000,348.000000 
M57.000233,282.500000 
	C57.000240,296.828186 57.259304,311.162689 56.909985,325.482361 
	C56.673641,335.170837 66.411186,344.133087 75.684090,344.101929 
	C135.162506,343.902008 194.642303,343.895416 254.120728,344.095764 
	C264.887817,344.132019 274.229187,334.601746 274.186584,324.131927 
	C273.850586,241.495667 274.000061,158.857422 273.999695,76.219795 
	C273.999634,64.098343 265.838287,56.002178 253.600906,56.001564 
	C194.621628,55.998611 135.640930,56.206261 76.664444,55.800522 
	C66.656898,55.731674 56.754318,65.693184 56.807018,75.573387 
	C57.173122,144.213989 57.000233,212.857452 57.000233,282.500000 
M1047.848389,196.287109 
	C1042.232544,214.060989 1036.616699,231.834869 1030.729492,250.467484 
	C1030.191406,248.418213 1029.956055,247.300644 1029.605957,246.220215 
	C1017.622803,209.231384 1005.689453,172.226212 993.612061,135.268143 
	C986.896240,114.717010 979.982056,94.230026 972.995117,73.769516 
	C972.487122,72.281891 970.680908,70.193619 969.436096,70.164078 
	C957.790649,69.887741 946.135925,70.000252 934.162354,70.000252 
	C934.488892,71.117821 934.668518,71.899361 934.942444,72.646317 
	C960.009033,140.998779 985.096130,209.343750 1010.106262,277.716888 
	C1011.072205,280.357788 1012.460144,281.117554 1015.191833,281.070862 
	C1025.185669,280.900024 1035.196777,280.708710 1045.174683,281.140869 
	C1049.470703,281.326935 1050.817505,279.535217 1052.110107,275.989319 
	C1072.713135,219.469666 1093.440552,162.995377 1114.135132,106.509048 
	C1118.521606,94.535912 1122.889893,82.556068 1127.479370,69.996674 
	C1116.008179,69.996674 1105.213013,70.193275 1094.431885,69.892288 
	C1090.547607,69.783844 1089.072266,71.135963 1087.904663,74.705971 
	C1074.723511,115.011757 1061.359009,155.257599 1047.848389,196.287109 
M30.999332,280.430969 
	C30.999332,204.438965 31.150013,128.446289 30.814894,52.455776 
	C30.771399,42.592834 40.733006,32.751724 50.287605,32.818306 
	C104.112740,33.193413 157.941833,32.999336 211.769577,32.999332 
	C213.715988,32.999332 215.662399,32.999332 217.999390,32.999332 
	C217.999390,30.179157 217.999435,27.883236 217.999390,25.587315 
	C217.999115,13.073442 209.951599,5.002045 197.459915,5.001596 
	C139.299286,4.999506 81.138664,4.997514 22.978035,5.003514 
	C12.209433,5.004625 4.005928,13.107075 4.004920,23.765938 
	C3.997189,105.590775 3.997315,187.415619 4.025053,269.240448 
	C4.025601,270.857941 4.186440,272.532074 4.618200,274.083588 
	C7.664522,285.030548 17.849855,290.276367 30.999332,287.279083 
	C30.999332,285.366852 30.999332,283.388794 30.999332,280.430969 
M1159.284912,162.096100 
	C1167.109131,163.391251 1174.933472,164.686401 1183.038208,166.027985 
	C1185.337402,154.491516 1192.307373,148.688477 1203.603882,147.241287 
	C1214.697632,145.820084 1225.498169,149.441971 1229.507935,157.151108 
	C1234.181885,166.137024 1234.488037,175.853867 1233.696899,186.988678 
	C1224.577026,186.988678 1215.761353,186.588974 1206.999146,187.103333 
	C1198.573730,187.597961 1190.049683,188.350800 1181.837891,190.190231 
	C1155.350464,196.123337 1141.812866,210.800568 1140.682861,235.023514 
	C1139.851440,252.844147 1144.733521,268.526062 1161.527954,277.833374 
	C1172.996704,284.189331 1185.531738,284.855499 1198.351562,283.364929 
	C1213.578125,281.594482 1224.604614,273.819641 1232.085815,260.649933 
	C1232.497192,259.925781 1233.113525,259.318054 1234.066528,258.107330 
	C1234.535889,266.171600 1234.958374,273.429291 1235.385620,280.770813 
	C1246.557129,280.770813 1257.317871,280.770813 1268.606567,280.770813 
	C1268.606567,278.749084 1268.606567,276.956421 1268.606567,275.163757 
	C1268.606567,244.839325 1268.700195,214.514389 1268.531494,184.190887 
	C1268.495483,177.730179 1267.993774,171.187759 1266.861328,164.833618 
	C1263.798462,147.647919 1255.125977,134.465439 1238.044434,128.443283 
	C1232.318237,126.424469 1226.150024,125.331627 1220.089966,124.651337 
	C1204.894165,122.945534 1189.798218,123.831535 1175.372803,129.289368 
	C1160.994873,134.729279 1153.241943,145.775894 1150.008057,160.730194 
	C1153.185913,161.223160 1155.801270,161.628876 1159.284912,162.096100 
M562.036621,267.480988 
	C596.522400,296.910248 656.911560,286.607086 675.187256,247.746185 
	C666.420593,243.555786 657.648682,239.362869 649.347534,235.394989 
	C645.196594,240.529266 641.781006,245.740906 637.416138,249.973663 
	C622.409851,264.525787 591.377869,264.603333 581.113831,238.615494 
	C577.756226,230.114273 576.440369,220.806671 573.963989,210.966888 
	C609.641174,210.966888 643.705933,210.966888 677.964539,210.966888 
	C678.722534,193.265640 676.877075,176.512375 669.908630,160.678757 
	C662.249451,143.275879 649.569641,131.241516 630.861572,126.400093 
	C619.618835,123.490616 608.157410,123.163658 596.688049,125.016190 
	C573.350342,128.785706 555.870178,140.625153 546.508179,162.773727 
	C538.364746,182.039383 537.902893,202.253265 540.683838,222.657028 
	C542.990601,239.582291 549.097778,254.783310 562.036621,267.480988 
M410.500000,69.994438 
	C394.083893,69.994438 377.667786,69.994438 361.428711,69.994438 
	C361.428711,80.174500 361.428711,89.579437 361.428711,99.522949 
	C382.210052,99.522949 402.604431,99.522949 423.540955,99.522949 
	C423.540955,160.303268 423.540955,220.532120 423.540955,280.698181 
	C435.860168,280.698181 447.619324,280.698181 459.893372,280.698181 
	C459.893372,220.159500 459.893372,159.925735 459.893372,99.027596 
	C481.104645,99.027596 501.804993,99.027596 522.561157,99.027596 
	C522.561157,89.088631 522.561157,79.819405 522.561157,69.994431 
	C485.384521,69.994431 448.442261,69.994431 410.500000,69.994438 
M728.100647,208.497116 
	C733.940369,210.343735 739.815063,212.087479 745.611145,214.062180 
	C753.429077,216.725662 761.604248,218.756821 768.878479,222.508789 
	C782.020081,229.287033 783.850281,248.294479 772.748901,256.354553 
	C763.785400,262.862427 742.970703,263.319153 734.309082,256.563507 
	C731.209290,254.145874 729.286560,250.153519 727.041809,246.738419 
	C726.180054,245.427444 725.918213,243.722122 725.327148,242.037186 
	C715.499634,243.607864 705.929199,245.137451 696.095154,246.709167 
	C699.878662,264.100128 708.791443,276.200439 725.933594,280.710052 
	C740.741699,284.605591 755.887451,285.341461 770.948059,282.699097 
	C794.955627,278.487030 808.594788,264.880859 811.552063,243.127686 
	C814.567810,220.943497 805.101379,204.274246 784.344238,195.914093 
	C777.606750,193.200485 770.492493,191.437943 763.650391,188.964462 
	C756.207947,186.273972 748.515625,183.940903 741.601562,180.211212 
	C733.777039,175.990341 732.905151,168.108612 734.361328,160.082870 
	C735.766174,152.339752 741.156250,148.169250 748.495239,147.405487 
	C754.009827,146.831573 759.782715,147.349991 765.272217,148.327606 
	C770.444031,149.248657 774.002686,152.923294 775.903320,157.948578 
	C776.529480,159.604111 777.114746,161.275085 777.740051,162.997620 
	C787.665955,161.897003 797.302490,160.828476 806.963318,159.757248 
	C804.294250,143.319077 795.552002,132.814758 780.571960,127.790863 
	C767.525513,123.415436 754.171631,123.269463 740.657776,124.976654 
	C719.136841,127.695366 705.558960,140.942368 702.324341,162.614655 
	C699.219604,183.416687 708.161072,199.644608 728.100647,208.497116 
M905.498169,126.998016 
	C898.734802,126.998016 891.971436,126.998016 884.698608,126.998016 
	C884.698608,114.298012 884.698608,102.240425 884.698608,90.162186 
	C876.869019,90.162186 869.567322,90.162186 862.047058,90.162186 
	C858.735779,101.225677 855.301575,112.159348 852.264221,123.202179 
	C851.433289,126.223412 850.215210,127.174881 847.178040,127.065659 
	C840.920715,126.840630 834.649597,126.997948 828.417725,126.997948 
	C828.417725,135.686234 828.417725,143.733231 828.417725,152.110794 
	C835.903198,152.110794 843.015930,152.110794 850.674988,152.110794 
	C850.674988,154.390869 850.671814,156.348328 850.675415,158.305771 
	C850.730835,188.280350 850.534607,218.258301 850.934021,248.228302 
	C851.190735,267.495728 862.291077,280.050964 881.293640,283.214783 
	C895.640442,285.603394 909.641296,282.786743 923.578064,279.612549 
	C923.578064,271.853088 923.578064,264.468048 923.578064,257.067719 
	C917.262878,257.481964 911.307129,258.127960 905.343628,258.211212 
	C892.524170,258.390106 886.088806,252.324615 885.065247,239.463608 
	C884.920166,237.640976 884.939514,235.802597 884.938965,233.971497 
	C884.931580,208.324829 884.929810,182.678146 884.943909,157.031479 
	C884.944763,155.436859 885.088440,153.842300 885.190613,151.734329 
	C897.669922,151.734329 909.721924,151.734329 921.653198,151.734329 
	C921.653198,143.261002 921.653198,135.332108 921.653198,126.998016 
	C916.419250,126.998016 911.457825,126.998016 905.498169,126.998016 
M1313.706055,127.000267 
	C1310.933472,126.638725 1310.857544,128.321396 1310.993652,130.387589 
	C1311.288940,134.871262 1311.635010,139.362808 1311.648682,143.852081 
	C1311.782104,187.505600 1311.851074,231.159348 1311.937744,274.813019 
	C1311.941650,276.752502 1311.938354,278.692017 1311.938354,280.752808 
	C1323.598511,280.752808 1334.682129,280.752808 1346.253174,280.752808 
	C1346.253174,278.724426 1346.253296,276.938934 1346.253296,275.153473 
	C1346.253296,252.325439 1346.128540,229.496460 1346.303101,206.669754 
	C1346.397827,194.269958 1347.967529,182.065704 1354.135132,170.970871 
	C1360.926392,158.754196 1370.914673,151.856888 1385.382202,152.747299 
	C1389.669067,153.011124 1393.950439,153.367401 1398.773193,153.720810 
	C1398.773193,145.065170 1398.880737,136.441574 1398.626221,127.828651 
	C1398.597168,126.844635 1396.674805,125.353363 1395.405762,125.055946 
	C1382.133301,121.945320 1363.425049,124.807457 1353.968628,143.167282 
	C1350.971436,148.986511 1348.365112,155.006943 1345.396729,161.325119 
	C1344.849365,149.648697 1344.324829,138.457214 1343.787720,126.998199 
	C1333.633545,126.998199 1324.153076,126.998199 1313.706055,127.000267 
z"/>
<path fill="#2563EB" opacity="1.000000" stroke="none" 
	d="
M57.000233,282.000000 
	C57.000233,212.857452 57.173122,144.213989 56.807018,75.573387 
	C56.754318,65.693184 66.656898,55.731674 76.664444,55.800522 
	C135.640930,56.206261 194.621628,55.998611 253.600906,56.001564 
	C265.838287,56.002178 273.999634,64.098343 273.999695,76.219795 
	C274.000061,158.857422 273.850586,241.495667 274.186584,324.131927 
	C274.229187,334.601746 264.887817,344.132019 254.120728,344.095764 
	C194.642303,343.895416 135.162506,343.902008 75.684090,344.101929 
	C66.411186,344.133087 56.673641,335.170837 56.909985,325.482361 
	C57.259304,311.162689 57.000240,296.828186 57.000233,282.000000 
M156.726761,160.991852 
	C160.175491,160.833817 163.731842,160.060486 167.051407,160.640991 
	C174.875366,162.009216 178.108841,167.943512 174.364502,174.983337 
	C172.297699,178.869171 168.630051,182.254837 164.974823,184.877518 
	C154.693771,192.254364 149.805069,201.691391 151.865814,214.657303 
	C158.478363,214.657303 165.038193,214.657303 172.127411,214.657303 
	C170.929993,205.440033 175.851227,199.985687 182.883896,195.423920 
	C189.001068,191.455978 193.530991,185.838486 196.019730,178.888550 
	C201.573639,163.379028 197.245438,145.764435 176.826416,141.963974 
	C170.386490,140.765366 163.541672,140.454865 157.037277,141.162842 
	C144.243759,142.555420 133.429092,148.211182 125.252693,158.853073 
	C129.104889,163.800339 132.750214,168.481949 135.633423,172.184784 
	C142.727600,168.307571 149.320786,164.704163 156.726761,160.991852 
M174.108871,232.558182 
	C170.360382,227.324905 165.275055,225.020233 158.991791,226.449890 
	C153.403412,227.721436 149.514954,231.313400 148.270752,237.022278 
	C147.053970,242.605408 148.522644,247.561752 153.038345,251.347229 
	C158.033493,255.534683 165.361908,255.718597 170.507156,251.833893 
	C176.441193,247.353577 177.823990,240.956238 174.108871,232.558182 
z"/>
<path fill="#2764EB" opacity="1.000000" stroke="none" 
	d="
M1047.946045,195.903320 
	C1061.359009,155.257599 1074.723511,115.011757 1087.904663,74.705971 
	C1089.072266,71.135963 1090.547607,69.783844 1094.431885,69.892288 
	C1105.213013,70.193275 1116.008179,69.996674 1127.479370,69.996674 
	C1122.889893,82.556068 1118.521606,94.535912 1114.135132,106.509048 
	C1093.440552,162.995377 1072.713135,219.469666 1052.110107,275.989319 
	C1050.817505,279.535217 1049.470703,281.326935 1045.174683,281.140869 
	C1035.196777,280.708710 1025.185669,280.900024 1015.191833,281.070862 
	C1012.460144,281.117554 1011.072205,280.357788 1010.106262,277.716888 
	C985.096130,209.343750 960.009033,140.998779 934.942444,72.646317 
	C934.668518,71.899361 934.488892,71.117821 934.162354,70.000252 
	C946.135925,70.000252 957.790649,69.887741 969.436096,70.164078 
	C970.680908,70.193619 972.487122,72.281891 972.995117,73.769516 
	C979.982056,94.230026 986.896240,114.717010 993.612061,135.268143 
	C1005.689453,172.226212 1017.622803,209.231384 1029.605957,246.220215 
	C1029.956055,247.300644 1030.191406,248.418213 1030.729492,250.467484 
	C1036.616699,231.834869 1042.232544,214.060989 1047.946045,195.903320 
z"/>
<path fill="#2563EB" opacity="1.000000" stroke="none" 
	d="
M30.999332,280.920837 
	C30.999332,283.388794 30.999332,285.366852 30.999332,287.279083 
	C17.849855,290.276367 7.664522,285.030548 4.618200,274.083588 
	C4.186440,272.532074 4.025601,270.857941 4.025053,269.240448 
	C3.997315,187.415619 3.997189,105.590775 4.004920,23.765938 
	C4.005928,13.107075 12.209433,5.004625 22.978035,5.003514 
	C81.138664,4.997514 139.299286,4.999506 197.459915,5.001596 
	C209.951599,5.002045 217.999115,13.073442 217.999390,25.587315 
	C217.999435,27.883236 217.999390,30.179157 217.999390,32.999332 
	C215.662399,32.999332 213.715988,32.999332 211.769577,32.999332 
	C157.941833,32.999336 104.112740,33.193413 50.287605,32.818306 
	C40.733006,32.751724 30.771399,42.592834 30.814894,52.455776 
	C31.150013,128.446289 30.999332,204.438965 30.999332,280.920837 
z"/>
<path fill="#2765EB" opacity="1.000000" stroke="none" 
	d="
M1158.850830,162.065338 
	C1155.801270,161.628876 1153.185913,161.223160 1150.008057,160.730194 
	C1153.241943,145.775894 1160.994873,134.729279 1175.372803,129.289368 
	C1189.798218,123.831535 1204.894165,122.945534 1220.089966,124.651337 
	C1226.150024,125.331627 1232.318237,126.424469 1238.044434,128.443283 
	C1255.125977,134.465439 1263.798462,147.647919 1266.861328,164.833618 
	C1267.993774,171.187759 1268.495483,177.730179 1268.531494,184.190887 
	C1268.700195,214.514389 1268.606567,244.839325 1268.606567,275.163757 
	C1268.606567,276.956421 1268.606567,278.749084 1268.606567,280.770813 
	C1257.317871,280.770813 1246.557129,280.770813 1235.385620,280.770813 
	C1234.958374,273.429291 1234.535889,266.171600 1234.066528,258.107330 
	C1233.113525,259.318054 1232.497192,259.925781 1232.085815,260.649933 
	C1224.604614,273.819641 1213.578125,281.594482 1198.351562,283.364929 
	C1185.531738,284.855499 1172.996704,284.189331 1161.527954,277.833374 
	C1144.733521,268.526062 1139.851440,252.844147 1140.682861,235.023514 
	C1141.812866,210.800568 1155.350464,196.123337 1181.837891,190.190231 
	C1190.049683,188.350800 1198.573730,187.597961 1206.999146,187.103333 
	C1215.761353,186.588974 1224.577026,186.988678 1233.696899,186.988678 
	C1234.488037,175.853867 1234.181885,166.137024 1229.507935,157.151108 
	C1225.498169,149.441971 1214.697632,145.820084 1203.603882,147.241287 
	C1192.307373,148.688477 1185.337402,154.491516 1183.038208,166.027985 
	C1174.933472,164.686401 1167.109131,163.391251 1158.850830,162.065338 
M1230.995483,238.356201 
	C1235.303833,227.860428 1234.091431,216.964478 1233.980713,205.283173 
	C1223.030762,206.254364 1212.689697,206.534180 1202.577515,208.201859 
	C1181.869263,211.617004 1172.970825,223.090637 1178.106079,245.811432 
	C1179.737183,253.028549 1184.872437,257.421967 1192.234497,258.994019 
	C1209.232422,262.623657 1222.604980,255.726273 1230.995483,238.356201 
z"/>
<path fill="#2664EB" opacity="1.000000" stroke="none" 
	d="
M561.783936,267.228577 
	C549.097778,254.783310 542.990601,239.582291 540.683838,222.657028 
	C537.902893,202.253265 538.364746,182.039383 546.508179,162.773727 
	C555.870178,140.625153 573.350342,128.785706 596.688049,125.016190 
	C608.157410,123.163658 619.618835,123.490616 630.861572,126.400093 
	C649.569641,131.241516 662.249451,143.275879 669.908630,160.678757 
	C676.877075,176.512375 678.722534,193.265640 677.964539,210.966888 
	C643.705933,210.966888 609.641174,210.966888 573.963989,210.966888 
	C576.440369,220.806671 577.756226,230.114273 581.113831,238.615494 
	C591.377869,264.603333 622.409851,264.525787 637.416138,249.973663 
	C641.781006,245.740906 645.196594,240.529266 649.347534,235.394989 
	C657.648682,239.362869 666.420593,243.555786 675.187256,247.746185 
	C656.911560,286.607086 596.522400,296.910248 561.783936,267.228577 
M588.781555,155.260437 
	C579.122803,164.298599 576.236572,175.874557 575.876526,188.696442 
	C598.212341,188.696442 620.119019,188.696442 642.973267,188.696442 
	C641.628296,182.243912 640.866882,176.113159 639.050232,170.312912 
	C631.938354,147.605545 608.319458,140.323837 588.781555,155.260437 
z"/>
<path fill="#2865EB" opacity="1.000000" stroke="none" 
	d="
M411.000000,69.994431 
	C448.442261,69.994431 485.384521,69.994431 522.561157,69.994431 
	C522.561157,79.819405 522.561157,89.088631 522.561157,99.027596 
	C501.804993,99.027596 481.104645,99.027596 459.893372,99.027596 
	C459.893372,159.925735 459.893372,220.159500 459.893372,280.698181 
	C447.619324,280.698181 435.860168,280.698181 423.540955,280.698181 
	C423.540955,220.532120 423.540955,160.303268 423.540955,99.522949 
	C402.604431,99.522949 382.210052,99.522949 361.428711,99.522949 
	C361.428711,89.579437 361.428711,80.174500 361.428711,69.994438 
	C377.667786,69.994438 394.083893,69.994438 411.000000,69.994431 
z"/>
<path fill="#2764EB" opacity="1.000000" stroke="none" 
	d="
M727.758545,208.325806 
	C708.161072,199.644608 699.219604,183.416687 702.324341,162.614655 
	C705.558960,140.942368 719.136841,127.695366 740.657776,124.976654 
	C754.171631,123.269463 767.525513,123.415436 780.571960,127.790863 
	C795.552002,132.814758 804.294250,143.319077 806.963318,159.757248 
	C797.302490,160.828476 787.665955,161.897003 777.740051,162.997620 
	C777.114746,161.275085 776.529480,159.604111 775.903320,157.948578 
	C774.002686,152.923294 770.444031,149.248657 765.272217,148.327606 
	C759.782715,147.349991 754.009827,146.831573 748.495239,147.405487 
	C741.156250,148.169250 735.766174,152.339752 734.361328,160.082870 
	C732.905151,168.108612 733.777039,175.990341 741.601562,180.211212 
	C748.515625,183.940903 756.207947,186.273972 763.650391,188.964462 
	C770.492493,191.437943 777.606750,193.200485 784.344238,195.914093 
	C805.101379,204.274246 814.567810,220.943497 811.552063,243.127686 
	C808.594788,264.880859 794.955627,278.487030 770.948059,282.699097 
	C755.887451,285.341461 740.741699,284.605591 725.933594,280.710052 
	C708.791443,276.200439 699.878662,264.100128 696.095154,246.709167 
	C705.929199,245.137451 715.499634,243.607864 725.327148,242.037186 
	C725.918213,243.722122 726.180054,245.427444 727.041809,246.738419 
	C729.286560,250.153519 731.209290,254.145874 734.309082,256.563507 
	C742.970703,263.319153 763.785400,262.862427 772.748901,256.354553 
	C783.850281,248.294479 782.020081,229.287033 768.878479,222.508789 
	C761.604248,218.756821 753.429077,216.725662 745.611145,214.062180 
	C739.815063,212.087479 733.940369,210.343735 727.758545,208.325806 
z"/>
<path fill="#2664EB" opacity="1.000000" stroke="none" 
	d="
M905.997314,126.998016 
	C911.457825,126.998016 916.419250,126.998016 921.653198,126.998016 
	C921.653198,135.332108 921.653198,143.261002 921.653198,151.734329 
	C909.721924,151.734329 897.669922,151.734329 885.190613,151.734329 
	C885.088440,153.842300 884.944763,155.436859 884.943909,157.031479 
	C884.929810,182.678146 884.931580,208.324829 884.938965,233.971497 
	C884.939514,235.802597 884.920166,237.640976 885.065247,239.463608 
	C886.088806,252.324615 892.524170,258.390106 905.343628,258.211212 
	C911.307129,258.127960 917.262878,257.481964 923.578064,257.067719 
	C923.578064,264.468048 923.578064,271.853088 923.578064,279.612549 
	C909.641296,282.786743 895.640442,285.603394 881.293640,283.214783 
	C862.291077,280.050964 851.190735,267.495728 850.934021,248.228302 
	C850.534607,218.258301 850.730835,188.280350 850.675415,158.305771 
	C850.671814,156.348328 850.674988,154.390869 850.674988,152.110794 
	C843.015930,152.110794 835.903198,152.110794 828.417725,152.110794 
	C828.417725,143.733231 828.417725,135.686234 828.417725,126.997948 
	C834.649597,126.997948 840.920715,126.840630 847.178040,127.065659 
	C850.215210,127.174881 851.433289,126.223412 852.264221,123.202179 
	C855.301575,112.159348 858.735779,101.225677 862.047058,90.162186 
	C869.567322,90.162186 876.869019,90.162186 884.698608,90.162186 
	C884.698608,102.240425 884.698608,114.298012 884.698608,126.998016 
	C891.971436,126.998016 898.734802,126.998016 905.997314,126.998016 
z"/>
<path fill="#2664EB" opacity="1.000000" stroke="none" 
	d="
M1314.189331,126.999237 
	C1324.153076,126.998199 1333.633545,126.998199 1343.787720,126.998199 
	C1344.324829,138.457214 1344.849365,149.648697 1345.396729,161.325119 
	C1348.365112,155.006943 1350.971436,148.986511 1353.968628,143.167282 
	C1363.425049,124.807457 1382.133301,121.945320 1395.405762,125.055946 
	C1396.674805,125.353363 1398.597168,126.844635 1398.626221,127.828651 
	C1398.880737,136.441574 1398.773193,145.065170 1398.773193,153.720810 
	C1393.950439,153.367401 1389.669067,153.011124 1385.382202,152.747299 
	C1370.914673,151.856888 1360.926392,158.754196 1354.135132,170.970871 
	C1347.967529,182.065704 1346.397827,194.269958 1346.303101,206.669754 
	C1346.128540,229.496460 1346.253296,252.325439 1346.253296,275.153473 
	C1346.253296,276.938934 1346.253174,278.724426 1346.253174,280.752808 
	C1334.682129,280.752808 1323.598511,280.752808 1311.938354,280.752808 
	C1311.938354,278.692017 1311.941650,276.752502 1311.937744,274.813019 
	C1311.851074,231.159348 1311.782104,187.505600 1311.648682,143.852081 
	C1311.635010,139.362808 1311.288940,134.871262 1310.993652,130.387589 
	C1310.857544,128.321396 1310.933472,126.638725 1314.189331,126.999237 
z"/>
<path fill="#FDFDFF" opacity="1.000000" stroke="none" 
	d="
M156.320374,161.046295 
	C149.320786,164.704163 142.727600,168.307571 135.633423,172.184784 
	C132.750214,168.481949 129.104889,163.800339 125.252693,158.853073 
	C133.429092,148.211182 144.243759,142.555420 157.037277,141.162842 
	C163.541672,140.454865 170.386490,140.765366 176.826416,141.963974 
	C197.245438,145.764435 201.573639,163.379028 196.019730,178.888550 
	C193.530991,185.838486 189.001068,191.455978 182.883896,195.423920 
	C175.851227,199.985687 170.929993,205.440033 172.127411,214.657303 
	C165.038193,214.657303 158.478363,214.657303 151.865814,214.657303 
	C149.805069,201.691391 154.693771,192.254364 164.974823,184.877518 
	C168.630051,182.254837 172.297699,178.869171 174.364502,174.983337 
	C178.108841,167.943512 174.875366,162.009216 167.051407,160.640991 
	C163.731842,160.060486 160.175491,160.833817 156.320374,161.046295 
z"/>
<path fill="#FCFDFF" opacity="1.000000" stroke="none" 
	d="
M174.325714,232.861298 
	C177.823990,240.956238 176.441193,247.353577 170.507156,251.833893 
	C165.361908,255.718597 158.033493,255.534683 153.038345,251.347229 
	C148.522644,247.561752 147.053970,242.605408 148.270752,237.022278 
	C149.514954,231.313400 153.403412,227.721436 158.991791,226.449890 
	C165.275055,225.020233 170.360382,227.324905 174.325714,232.861298 
z"/>
<path fill="#FEFEFF" opacity="1.000000" stroke="none" 
	d="
M1230.879150,238.725250 
	C1222.604980,255.726273 1209.232422,262.623657 1192.234497,258.994019 
	C1184.872437,257.421967 1179.737183,253.028549 1178.106079,245.811432 
	C1172.970825,223.090637 1181.869263,211.617004 1202.577515,208.201859 
	C1212.689697,206.534180 1223.030762,206.254364 1233.980713,205.283173 
	C1234.091431,216.964478 1235.303833,227.860428 1230.879150,238.725250 
z"/>
<path fill="#FEFEFF" opacity="1.000000" stroke="none" 
	d="
M589.042236,155.009888 
	C608.319458,140.323837 631.938354,147.605545 639.050232,170.312912 
	C640.866882,176.113159 641.628296,182.243912 642.973267,188.696442 
	C620.119019,188.696442 598.212341,188.696442 575.876526,188.696442 
	C576.236572,175.874557 579.122803,164.298599 589.042236,155.009888 
z"/>
</svg>