<svg version="1.1" id="Layer_1" xmlns="http://www.w3.org/2000/svg" xmlns:xlink="http://www.w3.org/1999/xlink" x="0px" y="0px"
	 width="100%" viewBox="0 0 278 259" enable-background="new 0 0 278 259" xml:space="preserve">
<path fill="#2259CB" opacity="1.000000" stroke="none" 
	d="
M62.926201,257.787720 
	C61.608414,256.233246 59.642971,254.886398 59.068245,253.093689 
	C46.960598,215.327133 34.993172,177.515549 23.035028,139.701172 
	C16.586643,119.309906 10.323847,98.858772 3.690192,78.528328 
	C2.467431,74.780876 3.426200,72.540634 6.184247,70.428795 
	C31.684359,50.903305 57.130463,31.306438 82.745201,11.932518 
	C86.122055,9.378405 90.357697,7.959703 94.316422,6.322659 
	C91.912422,6.989586 90.543083,7.710411 91.742630,10.841070 
	C93.943436,16.584896 95.721443,22.493643 97.595856,28.359152 
	C115.061417,83.013657 132.509964,137.673599 149.781403,192.582397 
	C124.653252,211.074097 99.672440,229.268234 74.794960,247.602585 
	C70.609772,250.686996 66.871155,254.377350 62.926201,257.787720 
z"/>
<path fill="#F0E8E0" opacity="1.000000" stroke="none" 
	d="
M149.255585,254.918152 
	C148.165359,251.425537 147.075134,247.932922 145.854828,243.774292 
	C152.972046,237.614929 160.157578,232.037720 167.479187,226.645248 
	C184.052109,214.439011 200.692123,202.323868 217.515930,189.846130 
	C207.633041,158.082520 197.513840,126.652542 187.452911,95.203926 
	C179.061035,68.972427 170.737457,42.719090 162.383636,16.475422 
	C167.807877,12.692892 173.229568,8.906672 178.660446,5.133700 
	C179.187607,4.767466 179.771698,4.483171 180.678802,4.627089 
	C181.503250,7.349481 181.780197,9.669547 182.484482,11.851697 
	C188.349518,30.023624 194.344650,48.153595 200.200668,66.328400 
	C207.939880,90.347839 215.576706,114.400246 223.280472,138.431137 
	C228.853806,155.816376 234.464417,173.189667 239.839890,190.776779 
	C212.231659,210.755707 184.829041,230.508331 157.478088,250.332245 
	C155.413635,251.828552 153.717026,253.832367 151.849442,255.600250 
	C151.458588,255.658539 151.067719,255.716812 150.336914,255.521729 
	C149.811249,255.021591 149.564117,254.904846 149.255585,254.918152 
z"/>
<path fill="#F0E8E0" opacity="1.000000" stroke="none" 
	d="
M92.846947,257.583618 
	C91.883110,256.201721 90.680901,254.925735 90.009132,253.414047 
	C88.893295,250.903061 88.118156,248.240662 87.229416,245.003174 
	C92.987320,240.123993 98.711845,235.878952 104.443962,231.644196 
	C122.295753,218.455750 140.150421,205.271179 158.221878,191.708954 
	C158.056030,189.894333 157.732300,188.436691 157.279800,187.020187 
	C144.265198,146.279190 131.204453,105.552902 118.229256,64.799377 
	C113.304405,49.331036 108.571655,33.801533 103.751350,18.299906 
	C109.050217,14.577350 114.346794,10.851530 119.651482,7.137286 
	C120.182190,6.765703 120.762146,6.464464 121.673264,6.571233 
	C124.160393,13.967536 126.239227,20.940382 128.436737,27.875620 
	C135.145706,49.048767 141.874252,70.215797 148.646652,91.368729 
	C152.992325,104.941963 157.462677,118.475250 161.816666,132.045853 
	C168.246384,152.086151 174.622314,172.143707 180.823120,192.450348 
	C157.026703,209.858627 133.395157,226.965179 109.853401,244.194427 
	C104.034798,248.452820 98.507919,253.109833 92.846947,257.583618 
z"/>
<path fill="#235ACB" opacity="1.000000" stroke="none" 
	d="
M192.273849,15.253504 
	C197.019821,11.534863 201.765793,7.816227 207.186127,4.100547 
	C208.524979,5.398523 209.380341,6.631318 209.825806,7.997738 
	C219.025070,36.215534 228.203537,64.440170 237.332260,92.680862 
	C246.411240,120.767647 255.453552,148.866348 264.452393,176.978897 
	C265.807739,181.213058 266.838837,185.551041 267.834076,190.130753 
	C244.105118,207.396790 220.530731,224.329941 197.040985,241.379730 
	C191.186203,245.629349 185.604645,250.255371 179.897507,254.708389 
	C176.681122,256.791412 176.814011,253.366959 176.234131,252.132004 
	C175.155151,249.834167 174.717010,247.235413 174.119110,244.078308 
	C186.730774,234.295593 199.245743,225.210632 211.737045,216.093231 
	C223.547745,207.472610 235.333572,198.817902 247.421875,189.967224 
	C247.400467,188.317749 247.206863,186.840714 246.757217,185.446259 
	C232.998566,142.778091 219.180328,100.129105 205.454498,57.450397 
	C200.943069,43.422680 196.660873,29.321238 192.273849,15.253504 
z"/>
<path fill="#235ACB" opacity="1.000000" stroke="none" 
	d="
M120.905235,255.721695 
	C115.906105,254.537720 117.737167,249.624573 115.995941,245.960205 
	C127.872032,236.462982 139.712418,227.673584 151.568787,218.905792 
	C163.694244,209.938980 175.835373,200.993317 188.265091,191.857056 
	C188.258163,190.239075 188.080887,188.762329 187.635330,187.371536 
	C171.448364,136.846298 155.216553,86.335419 139.052780,35.802773 
	C136.999985,29.385139 135.285217,22.859386 133.413849,16.383728 
	C137.497314,13.213222 141.553558,10.006845 145.671936,6.882370 
	C149.731552,3.802473 154.070679,2.493573 158.516998,5.405118 
	C155.591766,5.430482 153.048309,5.224872 149.334412,4.924645 
	C169.487289,67.632286 189.284821,129.234268 208.785141,191.022018 
	C203.554443,194.853928 198.657867,198.551331 193.681061,202.137329 
	C172.150284,217.651245 150.573868,233.101944 129.076447,248.661865 
	C126.171349,250.764572 123.620255,253.356369 120.905235,255.721695 
z"/>
<path fill="#296BFC" opacity="1.000000" stroke="none" 
	d="
M103.711700,17.922604 
	C108.571655,33.801533 113.304405,49.331036 118.229256,64.799377 
	C131.204453,105.552902 144.265198,146.279190 157.279800,187.020187 
	C157.732300,188.436691 158.056030,189.894333 157.778320,191.689728 
	C154.732391,192.141769 152.347916,192.236862 149.963440,192.331955 
	C132.509964,137.673599 115.061417,83.013657 97.595856,28.359152 
	C95.721443,22.493643 93.943436,16.584896 91.742630,10.841070 
	C90.543083,7.710411 91.912422,6.989586 94.709244,6.409230 
	C98.435188,5.393960 100.480591,6.350371 101.097908,10.230939 
	C101.497360,12.742012 102.783325,15.112060 103.711700,17.922604 
z"/>
<path fill="#296BFC" opacity="1.000000" stroke="none" 
	d="
M209.082367,190.836258 
	C189.284821,129.234268 169.487289,67.632286 149.334412,4.924645 
	C153.048309,5.224872 155.591766,5.430482 158.482666,5.822728 
	C159.936966,9.270855 161.043839,12.532347 162.267166,16.134630 
	C170.737457,42.719090 179.061035,68.972427 187.452911,95.203926 
	C197.513840,126.652542 207.633041,158.082520 217.154022,189.822159 
	C214.081467,190.361252 211.581909,190.598755 209.082367,190.836258 
z"/>
<path fill="#2B6AF6" opacity="1.000000" stroke="none" 
	d="
M268.019928,189.840988 
	C266.838837,185.551041 265.807739,181.213058 264.452393,176.978897 
	C255.453552,148.866348 246.411240,120.767647 237.332260,92.680862 
	C228.203537,64.440170 219.025070,36.215534 209.825806,7.997738 
	C209.380341,6.631318 208.524979,5.398523 207.527756,4.005732 
	C215.377563,1.562097 216.501770,2.121525 218.929993,9.582621 
	C228.549927,39.141621 238.239655,68.678047 247.794830,98.257942 
	C256.941559,126.573387 265.968628,154.927551 274.989899,183.283279 
	C275.578827,185.134354 275.668823,187.144180 275.501953,189.536285 
	C272.682007,189.941925 270.350952,189.891464 268.019928,189.840988 
z"/>
<path fill="#FBFCFD" opacity="1.000000" stroke="none" 
	d="
M133.185089,16.024523 
	C135.285217,22.859386 136.999985,29.385139 139.052780,35.802773 
	C155.216553,86.335419 171.448364,136.846298 187.635330,187.371536 
	C188.080887,188.762329 188.258163,190.239075 187.834320,191.812225 
	C185.079117,192.030457 183.050125,192.112198 181.021149,192.193924 
	C174.622314,172.143707 168.246384,152.086151 161.816666,132.045853 
	C157.462677,118.475250 152.992325,104.941963 148.646652,91.368729 
	C141.874252,70.215797 135.145706,49.048767 128.436737,27.875620 
	C126.239227,20.940382 124.160393,13.967536 122.021652,6.623115 
	C124.417282,5.881921 126.818565,5.529500 129.322800,5.161970 
	C130.619232,8.909557 131.787781,12.287438 133.185089,16.024523 
z"/>
<path fill="#FBFCFD" opacity="1.000000" stroke="none" 
	d="
M192.085236,14.886885 
	C196.660873,29.321238 200.943069,43.422680 205.454498,57.450397 
	C219.180328,100.129105 232.998566,142.778091 246.757217,185.446259 
	C247.206863,186.840714 247.400467,188.317749 246.978485,189.922363 
	C244.181824,190.248383 242.120117,190.408325 240.058395,190.568283 
	C234.464417,173.189667 228.853806,155.816376 223.280472,138.431137 
	C215.576706,114.400246 207.939880,90.347839 200.200668,66.328400 
	C194.344650,48.153595 188.349518,30.023624 182.484482,11.851697 
	C181.780197,9.669547 181.503250,7.349481 181.023376,4.697166 
	C186.521866,2.668660 189.878952,4.306155 190.560028,10.367926 
	C190.719162,11.784215 191.436249,13.137817 192.085236,14.886885 
z"/>
<path fill="#1D4191" opacity="1.000000" stroke="none" 
	d="
M149.781403,192.582397 
	C152.347916,192.236862 154.732391,192.141769 157.560425,192.065887 
	C140.150421,205.271179 122.295753,218.455750 104.443962,231.644196 
	C98.711845,235.878952 92.987320,240.123993 87.080231,244.647980 
	C82.172218,248.505508 77.644455,252.403519 72.629181,255.515961 
	C70.135429,257.063568 66.747345,257.170074 63.345016,257.858093 
	C66.871155,254.377350 70.609772,250.686996 74.794960,247.602585 
	C99.672440,229.268234 124.653252,211.074097 149.781403,192.582397 
z"/>
<path fill="#1E4291" opacity="1.000000" stroke="none" 
	d="
M208.785156,191.022018 
	C211.581909,190.598755 214.081467,190.361252 216.942932,190.147705 
	C200.692123,202.323868 184.052109,214.439011 167.479187,226.645248 
	C160.157578,232.037720 152.972046,237.614929 145.619904,243.436737 
	C141.073746,246.827606 136.429428,249.640289 132.256668,253.032974 
	C129.034271,255.652939 125.675369,256.444031 121.338112,255.820480 
	C123.620255,253.356369 126.171349,250.764572 129.076447,248.661865 
	C150.573868,233.101944 172.150284,217.651245 193.681061,202.137329 
	C198.657867,198.551331 203.554443,194.853928 208.785156,191.022018 
z"/>
<path fill="#1B3F8F" opacity="1.000000" stroke="none" 
	d="
M267.834076,190.130753 
	C270.350952,189.891464 272.682007,189.941925 275.447083,189.952606 
	C262.944427,199.407852 250.070358,208.989746 237.055161,218.375946 
	C220.939453,229.998093 204.765610,241.542679 188.450302,252.881119 
	C186.399033,254.306671 183.336349,254.276886 180.319885,254.814880 
	C185.604645,250.255371 191.186203,245.629349 197.040985,241.379730 
	C220.530731,224.329941 244.105118,207.396790 267.834076,190.130753 
z"/>
<path fill="#A19FA0" opacity="1.000000" stroke="none" 
	d="
M180.823120,192.450348 
	C183.050125,192.112198 185.079117,192.030457 187.538864,191.993561 
	C175.835373,200.993317 163.694244,209.938980 151.568787,218.905792 
	C139.712418,227.673584 127.872032,236.462982 115.920547,245.565948 
	C112.109947,248.486542 108.586105,251.417053 104.641655,253.580841 
	C101.221809,255.456818 97.325348,256.463959 93.243240,257.719360 
	C98.507919,253.109833 104.034798,248.452820 109.853401,244.194427 
	C133.395157,226.965179 157.026703,209.858627 180.823120,192.450348 
z"/>
<path fill="#A09FA0" opacity="1.000000" stroke="none" 
	d="
M239.839890,190.776779 
	C242.120117,190.408325 244.181824,190.248383 246.686935,190.133301 
	C235.333572,198.817902 223.547745,207.472610 211.737045,216.093231 
	C199.245743,225.210632 186.730774,234.295593 174.063873,243.694138 
	C169.202087,247.513062 164.659073,251.277847 159.723572,254.427643 
	C157.830261,255.635956 155.041397,255.441040 152.255020,255.742889 
	C153.717026,253.832367 155.413635,251.828552 157.478088,250.332245 
	C184.829041,230.508331 212.231659,210.755707 239.839890,190.776779 
z"/>
<path fill="#A09FA0" opacity="1.000000" stroke="none" 
	d="
M149.207153,255.189270 
	C149.564117,254.904846 149.811249,255.021591 150.043762,255.475189 
	C149.779938,255.608124 149.469315,255.534256 149.207153,255.189270 
z"/>
</svg>