<svg version="1.1" id="Layer_1" xmlns="http://www.w3.org/2000/svg" xmlns:xlink="http://www.w3.org/1999/xlink" x="0px" y="0px"
	 width="100%" viewBox="0 0 284 334" enable-background="new 0 0 284 334" xml:space="preserve">
<path fill="#2563EB" opacity="1.000000" stroke="none" 
	d="
M254.999954,49.833351 
	C264.136200,49.142601 272.132355,51.810284 277.544739,59.300655 
	C280.179443,62.946945 282.756744,67.731186 282.773315,72.010323 
	C283.081421,151.601059 282.966309,231.193344 283.044495,310.785217 
	C283.053497,319.972748 271.545715,333.136810 260.689331,333.099426 
	C200.246780,332.891388 139.803040,332.934814 79.360077,333.069611 
	C70.348450,333.089691 55.807125,321.561188 56.972679,308.956543 
	C56.982300,231.089722 56.989212,154.107925 57.001396,77.126114 
	C57.004040,60.417301 67.367500,50.008751 84.050896,50.004612 
	C135.538803,49.991833 187.026718,50.004925 238.514618,49.992599 
	C244.009750,49.991283 249.504837,49.888866 254.999954,49.833351 
M200.118469,171.529449 
	C200.847168,169.854004 201.684738,168.216766 202.287811,166.497269 
	C208.802216,147.923004 199.251862,131.553360 179.935486,128.027267 
	C170.216415,126.253120 160.667480,126.951576 151.343140,130.049988 
	C142.379868,133.028397 134.491669,137.660507 128.736588,146.011642 
	C132.831482,149.910690 136.756271,153.647766 140.751007,157.451462 
	C141.775223,156.377289 142.736816,155.218597 143.847824,154.227386 
	C152.679260,146.348053 162.605637,141.557312 174.800385,143.919769 
	C182.245819,145.362137 185.827545,150.276459 185.323181,157.900711 
	C184.758133,166.441864 179.433136,171.851715 172.736160,176.028900 
	C159.893631,184.039307 156.540558,195.854752 158.315979,210.128784 
	C163.724380,210.128784 168.975739,210.128784 174.329254,210.128784 
	C174.482727,209.190048 174.744476,208.535599 174.666626,207.924408 
	C173.356308,197.635895 178.628082,191.191406 186.535599,185.501419 
	C191.553467,181.890747 195.426086,176.688461 200.118469,171.529449 
M166.514175,250.756332 
	C167.498505,250.604523 168.505920,250.539993 169.463455,250.286835 
	C176.071503,248.539734 180.028122,242.488968 178.901672,235.915329 
	C177.816437,229.582108 172.205292,225.342056 165.519089,225.802795 
	C159.456055,226.220596 154.621384,230.951950 154.068390,237.008865 
	C153.446396,243.821518 157.781967,248.913803 166.514175,250.756332 
z"/>
<path fill="#FFFFFF" opacity="1.000000" stroke="none" 
	d="
M255.000046,49.416161 
	C249.504837,49.888866 244.009750,49.991283 238.514618,49.992599 
	C187.026718,50.004925 135.538803,49.991833 84.050896,50.004612 
	C67.367500,50.008751 57.004040,60.417301 57.001396,77.126114 
	C56.989212,154.107925 56.982300,231.089722 56.903496,308.535706 
	C42.307159,309.001038 33.411247,303.188782 29.634897,291.135406 
	C29.206625,289.768402 29.193935,288.271240 28.988230,285.957642 
	C28.991886,207.764313 28.993803,130.447769 29.001440,53.131245 
	C29.003092,36.418575 39.365253,26.008587 56.047455,26.004545 
	C108.536072,25.991829 161.024689,26.004179 213.513306,25.992558 
	C218.341995,25.991489 223.170670,25.888653 227.999344,25.833071 
	C242.447250,26.591776 250.565552,32.087929 254.240448,43.750286 
	C254.764847,45.414402 254.760025,47.245277 255.000046,49.416161 
z"/>
<path fill="#2563EB" opacity="1.000000" stroke="none" 
	d="
M227.999435,25.427948 
	C223.170670,25.888653 218.341995,25.991489 213.513306,25.992558 
	C161.024689,26.004179 108.536072,25.991829 56.047455,26.004545 
	C39.365253,26.008587 29.003092,36.418575 29.001440,53.131245 
	C28.993803,130.447769 28.991886,207.764313 28.915997,285.544647 
	C16.330694,285.974091 7.071384,279.446869 3.658139,268.136047 
	C3.194662,266.600189 3.026879,264.920532 3.026274,263.307373 
	C2.996614,184.186569 3.092232,105.065536 2.880546,25.945301 
	C2.854921,16.367582 14.735572,2.751681 26.092760,2.823608 
	C85.722466,3.201256 145.356323,3.120565 204.987411,2.874935 
	C214.291336,2.836611 228.498459,14.027791 227.999435,25.427948 
z"/>
<path fill="#FBFCFF" opacity="1.000000" stroke="none" 
	d="
M199.965378,171.864685 
	C195.426086,176.688461 191.553467,181.890747 186.535599,185.501419 
	C178.628082,191.191406 173.356308,197.635895 174.666626,207.924408 
	C174.744476,208.535599 174.482727,209.190048 174.329254,210.128784 
	C168.975739,210.128784 163.724380,210.128784 158.315979,210.128784 
	C156.540558,195.854752 159.893631,184.039307 172.736160,176.028900 
	C179.433136,171.851715 184.758133,166.441864 185.323181,157.900711 
	C185.827545,150.276459 182.245819,145.362137 174.800385,143.919769 
	C162.605637,141.557312 152.679260,146.348053 143.847824,154.227386 
	C142.736816,155.218597 141.775223,156.377289 140.751007,157.451462 
	C136.756271,153.647766 132.831482,149.910690 128.736588,146.011642 
	C134.491669,137.660507 142.379868,133.028397 151.343140,130.049988 
	C160.667480,126.951576 170.216415,126.253120 179.935486,128.027267 
	C199.251862,131.553360 208.802216,147.923004 202.287811,166.497269 
	C201.684738,168.216766 200.847168,169.854004 199.965378,171.864685 
z"/>
<path fill="#FAFBFF" opacity="1.000000" stroke="none" 
	d="
M166.119202,250.727692 
	C157.781967,248.913803 153.446396,243.821518 154.068390,237.008865 
	C154.621384,230.951950 159.456055,226.220596 165.519089,225.802795 
	C172.205292,225.342056 177.816437,229.582108 178.901672,235.915329 
	C180.028122,242.488968 176.071503,248.539734 169.463455,250.286835 
	C168.505920,250.539993 167.498505,250.604523 166.119202,250.727692 
z"/>
</svg>